<svg xmlns="http://www.w3.org/2000/svg" width="50" height="50" viewBox="0 0 50 50"><defs><style>.copy-a{fill:#56cbb4;}.copy-b{fill:#fff;}</style></defs><g transform="translate(0.031)"><circle class="copy-a" cx="25" cy="25" r="25" transform="translate(-0.031 0)"/><g transform="translate(11.809 9.949)"><g transform="translate(0)"><g transform="translate(0)"><path class="copy-b" d="M63.5.029,52.194,0a3.923,3.923,0,0,0-3.769,3.763l-1.089.025a3.77,3.77,0,0,0-3.622,3.737V26.339A3.923,3.923,0,0,0,47.483,30.1H61.616a3.923,3.923,0,0,0,3.769-3.763h.942A3.923,3.923,0,0,0,70.1,22.576V7.548ZM61.616,28.22H47.483A1.974,1.974,0,0,1,45.6,26.339V7.525c0-1.4,1.153-1.881,2.827-1.881V22.576a3.923,3.923,0,0,0,3.769,3.763s10.216-.01,11.315-.01A1.78,1.78,0,0,1,61.616,28.22ZM63.5,19.764h-8.48a.94.94,0,1,1,0-1.879H63.5a.94.94,0,1,1,0,1.879Zm0-4.7h-8.48a.94.94,0,1,1,0-1.879H63.5a.94.94,0,1,1,0,1.879Zm1.884-7.54A1.95,1.95,0,0,1,63.5,5.644V1.909l4.711,5.617Z" transform="translate(-43.714)"/></g></g></g></g></svg>