<svg xmlns="http://www.w3.org/2000/svg" width="50.273" height="50" viewBox="0 0 50.273 50"><defs><style>.em-a{fill:#30bacc;}.em-b{fill:#fff;}</style></defs><g transform="translate(0.273)"><circle class="em-a" cx="25" cy="25" r="25" transform="translate(-0.273 0)"/><path class="em-a" d="M120.209,147.466H88.934l11.33,11.8,3.27,3.311a4.522,4.522,0,0,1-2.677-1.3c-.413-.338-1.212-1.255-2.426-2.494l-10.214-10.43v19.416l.807.807-.09.094L103.3,183.032q.646.033,1.3.034a25,25,0,0,0,25-25q0-.622-.031-1.236Z" transform="translate(-79.602 -133.065)"/><g transform="translate(8.615 14.401)"><path class="em-b" d="M88.217,156.484V175.9l9.469-9.747Z" transform="translate(-88.217 -155.603)"/><path class="em-b" d="M336.729,156.484V175.9l-9.422-9.708Z" transform="translate(-303.958 -155.603)"/><path class="em-b" d="M95.558,147.466h31.275l-12.292,12.8a4.639,4.639,0,0,1-6.692,0Z" transform="translate(-94.841 -147.466)"/><path class="em-b" d="M115.25,265.438a5.622,5.622,0,0,1-8.11,0l-2.085-2.171-9.5,9.889h31.275l-9.5-9.889Z" transform="translate(-94.841 -251.958)"/></g></g></svg>