<svg xmlns="http://www.w3.org/2000/svg" xmlns:xlink="http://www.w3.org/1999/xlink" version="1.1" x="0px" y="0px" viewBox="0 0 100 125" style="enable-background:new 0 0 100 100;" xml:space="preserve"><g><path d="M17.2,78h59.6c4.5,0,8.2-3.7,8.2-8.3v-13c0-2.2-1.8-4-4-4s-4,1.8-4,4v13c0,0.2-0.1,0.3-0.2,0.3H17.2   c-0.1,0-0.2-0.1-0.2-0.3V30.4c0-0.2,0.1-0.3,0.2-0.3L37,30c2.2,0,4-1.8,4-4c0-2.2-1.8-4-4-4c0,0,0,0,0,0l-19.8,0   C12.7,22,9,25.8,9,30.4v39.3C9,74.3,12.7,78,17.2,78z"/><path d="M30.9,54.9c-0.1,0.6,0.7,1,1.1,0.5c8.9-10.3,26.9-9.7,30.4-9.5c0.3,0,0.6,0.3,0.6,0.6v8.1c0,0.5,0.6,0.8,1,0.5l21.4-17.7   c0.3-0.3,0.3-0.7,0-1L64,19.8c-0.4-0.3-1,0-1,0.5v8.2c0,0.3-0.2,0.6-0.5,0.6C37.7,33.7,32.2,48.9,30.9,54.9z"/></g></svg>